<svg width="1440" height="600" viewBox="0 0 1440 600" fill="none" xmlns="http://www.w3.org/2000/svg">
  <rect width="1440" height="600" fill="#2E2F42"/>
  
  <!-- Абстрактні елементи у фоні -->
  <circle cx="200" cy="150" r="100" fill="#4D5AE5" opacity="0.08"/>
  <circle cx="400" cy="450" r="150" fill="#4D5AE5" opacity="0.08"/>
  <circle cx="1000" cy="200" r="180" fill="#4D5AE5" opacity="0.08"/>
  <circle cx="1200" cy="500" r="120" fill="#4D5AE5" opacity="0.08"/>
  
  <!-- Градіентні елементи -->
  <ellipse cx="700" cy="300" rx="600" ry="250" fill="url(#gradient1)" opacity="0.05"/>
  
  <!-- Графічні елементи -->
  <rect x="150" y="250" width="200" height="10" rx="5" fill="#4D5AE5" opacity="0.15"/>
  <rect x="150" y="270" width="150" height="10" rx="5" fill="#4D5AE5" opacity="0.15"/>
  <rect x="150" y="290" width="100" height="10" rx="5" fill="#4D5AE5" opacity="0.15"/>
  
  <rect x="800" y="150" width="200" height="10" rx="5" fill="#4D5AE5" opacity="0.15"/>
  <rect x="800" y="170" width="150" height="10" rx="5" fill="#4D5AE5" opacity="0.15"/>
  <rect x="800" y="190" width="100" height="10" rx="5" fill="#4D5AE5" opacity="0.15"/>
  
  <rect x="600" y="400" width="200" height="10" rx="5" fill="#4D5AE5" opacity="0.15"/>
  <rect x="600" y="420" width="150" height="10" rx="5" fill="#4D5AE5" opacity="0.15"/>
  <rect x="600" y="440" width="100" height="10" rx="5" fill="#4D5AE5" opacity="0.15"/>
  
  <!-- Сіточка -->
  <path d="M0 100 H1440" stroke="#4D5AE5" stroke-width="0.5" opacity="0.05"/>
  <path d="M0 200 H1440" stroke="#4D5AE5" stroke-width="0.5" opacity="0.05"/>
  <path d="M0 300 H1440" stroke="#4D5AE5" stroke-width="0.5" opacity="0.05"/>
  <path d="M0 400 H1440" stroke="#4D5AE5" stroke-width="0.5" opacity="0.05"/>
  <path d="M0 500 H1440" stroke="#4D5AE5" stroke-width="0.5" opacity="0.05"/>
  
  <path d="M100 0 V600" stroke="#4D5AE5" stroke-width="0.5" opacity="0.05"/>
  <path d="M300 0 V600" stroke="#4D5AE5" stroke-width="0.5" opacity="0.05"/>
  <path d="M500 0 V600" stroke="#4D5AE5" stroke-width="0.5" opacity="0.05"/>
  <path d="M700 0 V600" stroke="#4D5AE5" stroke-width="0.5" opacity="0.05"/>
  <path d="M900 0 V600" stroke="#4D5AE5" stroke-width="0.5" opacity="0.05"/>
  <path d="M1100 0 V600" stroke="#4D5AE5" stroke-width="0.5" opacity="0.05"/>
  <path d="M1300 0 V600" stroke="#4D5AE5" stroke-width="0.5" opacity="0.05"/>
  
  <!-- Декоративні елементи -->
  <circle cx="150" cy="150" r="5" fill="#4D5AE5" opacity="0.8"/>
  <circle cx="250" cy="350" r="3" fill="#4D5AE5" opacity="0.6"/>
  <circle cx="450" cy="250" r="7" fill="#4D5AE5" opacity="0.4"/>
  <circle cx="650" cy="150" r="4" fill="#4D5AE5" opacity="0.7"/>
  <circle cx="850" cy="450" r="6" fill="#4D5AE5" opacity="0.5"/>
  <circle cx="1050" cy="350" r="3" fill="#4D5AE5" opacity="0.7"/>
  <circle cx="1250" cy="250" r="5" fill="#4D5AE5" opacity="0.6"/>
  
  <!-- Технічні елементи сайту (стилізовані) -->
  <rect x="50" y="50" width="100" height="20" rx="10" fill="#4D5AE5" opacity="0.1"/>
  <rect x="1290" y="50" width="100" height="20" rx="10" fill="#4D5AE5" opacity="0.1"/>
  
  <!-- Градієнти -->
  <defs>
    <radialGradient id="gradient1" cx="0.5" cy="0.5" r="0.5" gradientUnits="objectBoundingBox">
      <stop offset="0" stop-color="#4D5AE5" stop-opacity="0.2"/>
      <stop offset="1" stop-color="#2E2F42" stop-opacity="0"/>
    </radialGradient>
  </defs>
</svg> 