<svg width="120" height="40" viewBox="0 0 120 40" fill="none" xmlns="http://www.w3.org/2000/svg">
  <rect width="120" height="40" rx="8" fill="#4D5AE5" />
  <path d="M25.79 30L19.59 15.44H16.96V30H12.07V8.39H20.67L26.87 22.95H29.5V8.39H34.39V30H25.79Z" fill="white"/>
  <path d="M50.04 30.36C47.74 30.36 45.9 29.9 44.52 28.98C43.16 28.06 42.19 26.81 41.63 25.23C41.07 23.63 40.79 21.85 40.79 19.89V18.5C40.79 16.54 41.07 14.77 41.63 13.19C42.19 11.61 43.16 10.36 44.52 9.44C45.9 8.52 47.74 8.06 50.04 8.06C52.36 8.06 54.2 8.52 55.56 9.44C56.92 10.36 57.89 11.61 58.45 13.19C59.01 14.77 59.29 16.54 59.29 18.5V19.89C59.29 21.85 59.01 23.63 58.45 25.23C57.89 26.81 56.92 28.06 55.56 28.98C54.2 29.9 52.36 30.36 50.04 30.36ZM50.04 26.13C51.4 26.13 52.4 25.69 53.04 24.81C53.68 23.91 54 22.31 54 20.01V18.35C54 16.05 53.68 14.46 53.04 13.58C52.4 12.7 51.4 12.26 50.04 12.26C48.72 12.26 47.72 12.7 47.04 13.58C46.38 14.46 46.05 16.05 46.05 18.35V20.01C46.05 22.31 46.38 23.91 47.04 24.81C47.72 25.69 48.72 26.13 50.04 26.13Z" fill="white"/>
  <path d="M73.97 12.63H67.84V30H62.95V12.63H56.82V8.39H73.97V12.63Z" fill="white"/>
  <path d="M80.29 30H75.4V8.39H80.29V30Z" fill="white"/>
  <path d="M94.59 12.63H83.28V16.72H93.69V20.96H83.28V25.76H94.59V30H78.39V8.39H94.59V12.63Z" fill="white"/>
</svg> 