<svg width="360" height="300" viewBox="0 0 360 300" fill="none" xmlns="http://www.w3.org/2000/svg">
  <rect width="360" height="300" fill="#F4F4FD"/>
  <rect x="30" y="30" width="300" height="240" rx="8" fill="white"/>
  
  <!-- Шапка корпоративного сайту -->
  <rect x="30" y="30" width="300" height="50" rx="4" fill="#2E2F42"/>
  <rect x="50" y="45" width="60" height="20" rx="4" fill="#4D5AE5"/>
  <rect x="180" y="45" width="30" height="20" rx="4" fill="#E7E9FC"/>
  <rect x="220" y="45" width="30" height="20" rx="4" fill="#E7E9FC"/>
  <rect x="260" y="45" width="30" height="20" rx="4" fill="#E7E9FC"/>
  <rect x="300" y="45" width="20" height="20" rx="4" fill="#404BBF"/>
  
  <!-- Головний блок -->
  <rect x="30" y="80" width="300" height="120" rx="4" fill="#4D5AE5" opacity="0.1"/>
  <rect x="80" y="110" width="200" height="25" rx="4" fill="#2E2F42"/>
  <rect x="100" y="150" width="160" height="20" rx="4" fill="#4D5AE5"/>
  
  <!-- Інформаційні блоки -->
  <rect x="30" y="210" width="95" height="60" rx="4" fill="#E7E9FC"/>
  <rect x="45" y="220" width="65" height="15" rx="2" fill="#2E2F42"/>
  <rect x="45" y="240" width="45" height="15" rx="2" fill="#4D5AE5" opacity="0.7"/>
  
  <rect x="132.5" y="210" width="95" height="60" rx="4" fill="#E7E9FC"/>
  <rect x="147.5" y="220" width="65" height="15" rx="2" fill="#2E2F42"/>
  <rect x="147.5" y="240" width="45" height="15" rx="2" fill="#4D5AE5" opacity="0.7"/>
  
  <rect x="235" y="210" width="95" height="60" rx="4" fill="#E7E9FC"/>
  <rect x="250" y="220" width="65" height="15" rx="2" fill="#2E2F42"/>
  <rect x="250" y="240" width="45" height="15" rx="2" fill="#4D5AE5" opacity="0.7"/>
</svg> 