<svg width="360" height="300" viewBox="0 0 360 300" fill="none" xmlns="http://www.w3.org/2000/svg">
  <rect width="360" height="300" fill="#F4F4FD"/>
  <rect x="30" y="30" width="300" height="240" rx="8" fill="white"/>
  
  <!-- Сайдбар веб-додатку -->
  <rect x="30" y="30" width="60" height="240" rx="4" fill="#2E2F42"/>
  <circle cx="60" cy="50" r="15" fill="#4D5AE5"/>
  <rect x="45" y="80" width="30" height="5" rx="2.5" fill="#E7E9FC"/>
  <rect x="45" y="100" width="30" height="5" rx="2.5" fill="#E7E9FC"/>
  <rect x="45" y="120" width="30" height="5" rx="2.5" fill="#E7E9FC"/>
  <rect x="45" y="140" width="30" height="5" rx="2.5" fill="#E7E9FC"/>
  <rect x="45" y="240" width="30" height="5" rx="2.5" fill="#404BBF"/>
  
  <!-- Головна область -->
  <rect x="100" y="40" width="220" height="30" rx="4" fill="#E7E9FC"/>
  <rect x="110" y="50" width="100" height="10" rx="2" fill="#2E2F42"/>
  
  <!-- Картки користувачів -->
  <rect x="100" y="80" width="100" height="80" rx="4" fill="#E7E9FC"/>
  <circle cx="150" cy="105" r="15" fill="#4D5AE5" opacity="0.6"/>
  <rect x="120" y="130" width="60" height="8" rx="2" fill="#2E2F42"/>
  <rect x="130" y="145" width="40" height="6" rx="2" fill="#4D5AE5" opacity="0.4"/>
  
  <rect x="210" y="80" width="100" height="80" rx="4" fill="#E7E9FC"/>
  <circle cx="260" cy="105" r="15" fill="#4D5AE5" opacity="0.6"/>
  <rect x="230" y="130" width="60" height="8" rx="2" fill="#2E2F42"/>
  <rect x="240" y="145" width="40" height="6" rx="2" fill="#4D5AE5" opacity="0.4"/>
  
  <rect x="100" y="170" width="100" height="80" rx="4" fill="#E7E9FC"/>
  <circle cx="150" cy="195" r="15" fill="#4D5AE5" opacity="0.6"/>
  <rect x="120" y="220" width="60" height="8" rx="2" fill="#2E2F42"/>
  <rect x="130" y="235" width="40" height="6" rx="2" fill="#4D5AE5" opacity="0.4"/>
  
  <rect x="210" y="170" width="100" height="80" rx="4" fill="#E7E9FC"/>
  <circle cx="260" cy="195" r="15" fill="#4D5AE5" opacity="0.6"/>
  <rect x="230" y="220" width="60" height="8" rx="2" fill="#2E2F42"/>
  <rect x="240" y="235" width="40" height="6" rx="2" fill="#4D5AE5" opacity="0.4"/>
</svg> 