<svg width="360" height="300" viewBox="0 0 360 300" fill="none" xmlns="http://www.w3.org/2000/svg">
  <rect width="360" height="300" fill="#F4F4FD"/>
  <rect x="30" y="30" width="300" height="240" rx="8" fill="white"/>
  
  <!-- Шапка сайту -->
  <rect x="30" y="30" width="300" height="50" rx="4" fill="#2E2F42"/>
  <rect x="50" y="45" width="80" height="20" rx="4" fill="#4D5AE5"/>
  <rect x="200" y="45" width="30" height="20" rx="4" fill="#E7E9FC"/>
  <rect x="240" y="45" width="30" height="20" rx="4" fill="#E7E9FC"/>
  <rect x="280" y="45" width="30" height="20" rx="4" fill="#E7E9FC"/>
  
  <!-- Товари -->
  <rect x="50" y="100" width="80" height="80" rx="4" fill="#E7E9FC"/>
  <rect x="50" y="190" width="80" height="15" rx="2" fill="#2E2F42"/>
  <rect x="50" y="210" width="60" height="15" rx="2" fill="#4D5AE5"/>
  
  <rect x="150" y="100" width="80" height="80" rx="4" fill="#E7E9FC"/>
  <rect x="150" y="190" width="80" height="15" rx="2" fill="#2E2F42"/>
  <rect x="150" y="210" width="60" height="15" rx="2" fill="#4D5AE5"/>
  
  <rect x="250" y="100" width="80" height="80" rx="4" fill="#E7E9FC"/>
  <rect x="250" y="190" width="80" height="15" rx="2" fill="#2E2F42"/>
  <rect x="250" y="210" width="60" height="15" rx="2" fill="#4D5AE5"/>
  
  <!-- Іконки товарів -->
  <rect x="65" y="125" width="50" height="30" rx="4" fill="#4D5AE5" opacity="0.3"/>
  <rect x="165" y="125" width="50" height="30" rx="4" fill="#4D5AE5" opacity="0.3"/>
  <rect x="265" y="125" width="50" height="30" rx="4" fill="#4D5AE5" opacity="0.3"/>
</svg> 